<mxfile host="app.diagrams.net" modified="2023-03-07T13:54:46.871Z" agent="5.0 (Macintosh; Intel Mac OS X 10_15_7) AppleWebKit/537.36 (KHTML, like Gecko) Chrome/110.0.0.0 Safari/537.36" etag="PZKCYEw67DBqNBBKnPJZ" version="20.8.23" type="github">
  <diagram name="第 1 页" id="Ley3T1oHCzhXuV9W0R5z">
    <mxGraphModel dx="2261" dy="771" grid="1" gridSize="10" guides="1" tooltips="1" connect="1" arrows="1" fold="1" page="1" pageScale="1" pageWidth="827" pageHeight="1169" math="0" shadow="0">
      <root>
        <mxCell id="0" />
        <mxCell id="1" parent="0" />
        <mxCell id="DcJqsoQAITfwaPWHc3Mr-1" value="" style="shape=flexArrow;endArrow=classic;html=1;rounded=0;fillColor=#0050ef;strokeColor=#001DBC;endWidth=28;endSize=15.67;movable=1;resizable=1;rotatable=1;deletable=1;editable=1;locked=0;connectable=1;fontSize=14;" edge="1" parent="1">
          <mxGeometry width="50" height="50" relative="1" as="geometry">
            <mxPoint x="-240" y="390" as="sourcePoint" />
            <mxPoint x="1120" y="390" as="targetPoint" />
          </mxGeometry>
        </mxCell>
        <mxCell id="DcJqsoQAITfwaPWHc3Mr-21" style="edgeStyle=orthogonalEdgeStyle;rounded=0;orthogonalLoop=1;jettySize=auto;html=1;strokeWidth=3;fontSize=14;" edge="1" parent="1" source="DcJqsoQAITfwaPWHc3Mr-3">
          <mxGeometry relative="1" as="geometry">
            <mxPoint x="-195" y="390" as="targetPoint" />
          </mxGeometry>
        </mxCell>
        <mxCell id="DcJqsoQAITfwaPWHc3Mr-3" value="&lt;font style=&quot;font-size: 14px;&quot;&gt;GPT&lt;br style=&quot;font-size: 14px;&quot;&gt;2018/06&lt;br style=&quot;font-size: 14px;&quot;&gt;1.17亿&lt;br style=&quot;border-color: var(--border-color); font-size: 14px;&quot;&gt;5GB&lt;/font&gt;" style="rounded=1;whiteSpace=wrap;html=1;fontSize=14;fillColor=#0050ef;fontColor=#ffffff;strokeColor=#001DBC;" vertex="1" parent="1">
          <mxGeometry x="-230" y="250" width="70" height="90" as="geometry" />
        </mxCell>
        <mxCell id="DcJqsoQAITfwaPWHc3Mr-23" style="edgeStyle=orthogonalEdgeStyle;rounded=0;orthogonalLoop=1;jettySize=auto;html=1;strokeWidth=3;fontSize=14;" edge="1" parent="1" source="DcJqsoQAITfwaPWHc3Mr-4">
          <mxGeometry relative="1" as="geometry">
            <mxPoint x="60" y="390" as="targetPoint" />
          </mxGeometry>
        </mxCell>
        <mxCell id="DcJqsoQAITfwaPWHc3Mr-4" value="GPT2&lt;br style=&quot;font-size: 14px;&quot;&gt;2019/02&lt;br style=&quot;font-size: 14px;&quot;&gt;15亿&lt;br style=&quot;font-size: 14px;&quot;&gt;40G" style="rounded=1;whiteSpace=wrap;html=1;fontSize=14;fillColor=#0050ef;fontColor=#ffffff;strokeColor=#001DBC;" vertex="1" parent="1">
          <mxGeometry x="30" y="250" width="60" height="90" as="geometry" />
        </mxCell>
        <mxCell id="DcJqsoQAITfwaPWHc3Mr-26" style="edgeStyle=orthogonalEdgeStyle;rounded=0;orthogonalLoop=1;jettySize=auto;html=1;strokeWidth=3;fontSize=14;" edge="1" parent="1" source="DcJqsoQAITfwaPWHc3Mr-5">
          <mxGeometry relative="1" as="geometry">
            <mxPoint x="375" y="390" as="targetPoint" />
          </mxGeometry>
        </mxCell>
        <mxCell id="DcJqsoQAITfwaPWHc3Mr-5" value="BART&lt;br style=&quot;font-size: 14px;&quot;&gt;2019/10&lt;br style=&quot;font-size: 14px;&quot;&gt;55亿&lt;br style=&quot;font-size: 14px;&quot;&gt;/" style="rounded=1;whiteSpace=wrap;html=1;fontSize=14;fillColor=#6d8764;fontColor=#ffffff;strokeColor=#3A5431;" vertex="1" parent="1">
          <mxGeometry x="320" y="420" width="110" height="80" as="geometry" />
        </mxCell>
        <mxCell id="DcJqsoQAITfwaPWHc3Mr-35" style="edgeStyle=orthogonalEdgeStyle;rounded=0;orthogonalLoop=1;jettySize=auto;html=1;strokeWidth=3;fontSize=14;" edge="1" parent="1" source="DcJqsoQAITfwaPWHc3Mr-6">
          <mxGeometry relative="1" as="geometry">
            <mxPoint x="750" y="390" as="targetPoint" />
          </mxGeometry>
        </mxCell>
        <mxCell id="DcJqsoQAITfwaPWHc3Mr-6" value="InstructGPT&lt;br style=&quot;font-size: 14px;&quot;&gt;2022/01&lt;br style=&quot;font-size: 14px;&quot;&gt;13亿&lt;br style=&quot;font-size: 14px;&quot;&gt;45T+46K(RLHF)+31k(fine-tuning)" style="rounded=1;whiteSpace=wrap;html=1;fontSize=14;fillColor=#0050ef;fontColor=#ffffff;strokeColor=#001DBC;" vertex="1" parent="1">
          <mxGeometry x="660" y="250" width="180" height="100" as="geometry" />
        </mxCell>
        <mxCell id="DcJqsoQAITfwaPWHc3Mr-29" style="edgeStyle=orthogonalEdgeStyle;rounded=0;orthogonalLoop=1;jettySize=auto;html=1;strokeWidth=3;fontSize=14;" edge="1" parent="1" source="DcJqsoQAITfwaPWHc3Mr-7">
          <mxGeometry relative="1" as="geometry">
            <mxPoint x="570" y="390" as="targetPoint" />
          </mxGeometry>
        </mxCell>
        <mxCell id="DcJqsoQAITfwaPWHc3Mr-7" value="GPT3&lt;br style=&quot;font-size: 14px;&quot;&gt;2020/05&lt;br style=&quot;font-size: 14px;&quot;&gt;1750亿&lt;br style=&quot;font-size: 14px;&quot;&gt;45TB" style="rounded=1;whiteSpace=wrap;html=1;fontSize=14;fillColor=#0050ef;fontColor=#ffffff;strokeColor=#001DBC;" vertex="1" parent="1">
          <mxGeometry x="540" y="250" width="60" height="90" as="geometry" />
        </mxCell>
        <mxCell id="DcJqsoQAITfwaPWHc3Mr-22" style="edgeStyle=orthogonalEdgeStyle;rounded=0;orthogonalLoop=1;jettySize=auto;html=1;strokeWidth=3;fontSize=14;" edge="1" parent="1" source="DcJqsoQAITfwaPWHc3Mr-8">
          <mxGeometry relative="1" as="geometry">
            <mxPoint x="-85" y="400" as="targetPoint" />
          </mxGeometry>
        </mxCell>
        <mxCell id="DcJqsoQAITfwaPWHc3Mr-8" value="BERT&lt;br style=&quot;font-size: 14px;&quot;&gt;2018/10&lt;br style=&quot;font-size: 14px;&quot;&gt;3亿&lt;br style=&quot;font-size: 14px;&quot;&gt;3.3B words ≈15G" style="rounded=1;whiteSpace=wrap;html=1;fontSize=14;fillColor=#1ba1e2;fontColor=#ffffff;strokeColor=#006EAF;" vertex="1" parent="1">
          <mxGeometry x="-140" y="420" width="110" height="80" as="geometry" />
        </mxCell>
        <mxCell id="DcJqsoQAITfwaPWHc3Mr-32" style="edgeStyle=orthogonalEdgeStyle;rounded=0;orthogonalLoop=1;jettySize=auto;html=1;exitX=0.5;exitY=1;exitDx=0;exitDy=0;strokeWidth=3;fontSize=14;" edge="1" parent="1" source="DcJqsoQAITfwaPWHc3Mr-9">
          <mxGeometry relative="1" as="geometry">
            <mxPoint x="930" y="380" as="targetPoint" />
          </mxGeometry>
        </mxCell>
        <mxCell id="DcJqsoQAITfwaPWHc3Mr-9" value="ChatGPT&lt;br style=&quot;font-size: 14px;&quot;&gt;2022/11" style="rounded=1;whiteSpace=wrap;html=1;fontSize=14;fillColor=#0050ef;fontColor=#ffffff;strokeColor=#001DBC;" vertex="1" parent="1">
          <mxGeometry x="870" y="265" width="120" height="60" as="geometry" />
        </mxCell>
        <mxCell id="DcJqsoQAITfwaPWHc3Mr-24" style="edgeStyle=orthogonalEdgeStyle;rounded=0;orthogonalLoop=1;jettySize=auto;html=1;strokeWidth=3;fontSize=14;" edge="1" parent="1" source="DcJqsoQAITfwaPWHc3Mr-11">
          <mxGeometry relative="1" as="geometry">
            <mxPoint x="160" y="400" as="targetPoint" />
          </mxGeometry>
        </mxCell>
        <mxCell id="DcJqsoQAITfwaPWHc3Mr-11" value="ERNIE&lt;br style=&quot;font-size: 14px;&quot;&gt;2019/03&lt;br&gt;3.4亿&lt;br&gt;/" style="rounded=1;whiteSpace=wrap;html=1;fontSize=14;fillColor=#60a917;fontColor=#ffffff;strokeColor=#2D7600;" vertex="1" parent="1">
          <mxGeometry x="100" y="550" width="120" height="80" as="geometry" />
        </mxCell>
        <mxCell id="DcJqsoQAITfwaPWHc3Mr-31" style="edgeStyle=orthogonalEdgeStyle;rounded=0;orthogonalLoop=1;jettySize=auto;html=1;strokeWidth=3;fontSize=14;" edge="1" parent="1" source="DcJqsoQAITfwaPWHc3Mr-12">
          <mxGeometry relative="1" as="geometry">
            <mxPoint x="640" y="400" as="targetPoint" />
          </mxGeometry>
        </mxCell>
        <mxCell id="DcJqsoQAITfwaPWHc3Mr-12" value="ERNIE3.0&lt;br style=&quot;font-size: 14px;&quot;&gt;2021/07&lt;br&gt;100亿&lt;br style=&quot;font-size: 14px;&quot;&gt;4TB" style="rounded=1;whiteSpace=wrap;html=1;fontSize=14;fillColor=#60a917;fontColor=#ffffff;strokeColor=#2D7600;" vertex="1" parent="1">
          <mxGeometry x="580" y="550" width="120" height="80" as="geometry" />
        </mxCell>
        <mxCell id="DcJqsoQAITfwaPWHc3Mr-33" style="edgeStyle=orthogonalEdgeStyle;rounded=0;orthogonalLoop=1;jettySize=auto;html=1;strokeWidth=3;fontSize=14;" edge="1" parent="1" source="DcJqsoQAITfwaPWHc3Mr-13">
          <mxGeometry relative="1" as="geometry">
            <mxPoint x="1040" y="400" as="targetPoint" />
          </mxGeometry>
        </mxCell>
        <mxCell id="DcJqsoQAITfwaPWHc3Mr-13" value="文心一言&lt;br style=&quot;font-size: 14px;&quot;&gt;2022/03/16" style="rounded=1;whiteSpace=wrap;html=1;fontSize=14;fillColor=#60a917;fontColor=#ffffff;strokeColor=#2D7600;" vertex="1" parent="1">
          <mxGeometry x="980" y="560" width="120" height="60" as="geometry" />
        </mxCell>
        <mxCell id="DcJqsoQAITfwaPWHc3Mr-17" value="&lt;font style=&quot;font-size: 14px;&quot;&gt;模型&lt;br&gt;发布时间&lt;br&gt;参数量&lt;br style=&quot;border-color: var(--border-color);&quot;&gt;预训练数据量&lt;br&gt;&lt;/font&gt;" style="rounded=1;whiteSpace=wrap;html=1;" vertex="1" parent="1">
          <mxGeometry x="-240" y="110" width="120" height="90" as="geometry" />
        </mxCell>
        <mxCell id="DcJqsoQAITfwaPWHc3Mr-19" value="T5&lt;br style=&quot;font-size: 14px;&quot;&gt;2019/10&lt;br style=&quot;font-size: 14px;&quot;&gt;110亿&lt;br style=&quot;font-size: 14px;&quot;&gt;750G" style="rounded=1;whiteSpace=wrap;html=1;fontSize=14;fillColor=#1ba1e2;fontColor=#ffffff;strokeColor=#006EAF;" vertex="1" parent="1">
          <mxGeometry x="440" y="420" width="110" height="80" as="geometry" />
        </mxCell>
        <mxCell id="DcJqsoQAITfwaPWHc3Mr-25" style="edgeStyle=orthogonalEdgeStyle;rounded=0;orthogonalLoop=1;jettySize=auto;html=1;strokeWidth=3;fontSize=14;" edge="1" parent="1" source="DcJqsoQAITfwaPWHc3Mr-20">
          <mxGeometry relative="1" as="geometry">
            <mxPoint x="310" y="400" as="targetPoint" />
          </mxGeometry>
        </mxCell>
        <mxCell id="DcJqsoQAITfwaPWHc3Mr-20" value="ERNIE2.0&lt;br style=&quot;font-size: 14px;&quot;&gt;2019/07&lt;br&gt;3.4亿&lt;br&gt;36G" style="rounded=1;whiteSpace=wrap;html=1;fontSize=14;fillColor=#60a917;fontColor=#ffffff;strokeColor=#2D7600;" vertex="1" parent="1">
          <mxGeometry x="250" y="550" width="120" height="80" as="geometry" />
        </mxCell>
        <mxCell id="DcJqsoQAITfwaPWHc3Mr-28" style="edgeStyle=orthogonalEdgeStyle;rounded=0;orthogonalLoop=1;jettySize=auto;html=1;strokeWidth=3;fontSize=14;" edge="1" parent="1">
          <mxGeometry relative="1" as="geometry">
            <mxPoint x="493" y="393" as="targetPoint" />
            <mxPoint x="493" y="423" as="sourcePoint" />
          </mxGeometry>
        </mxCell>
        <mxCell id="DcJqsoQAITfwaPWHc3Mr-36" value="PaLM&lt;br style=&quot;font-size: 14px;&quot;&gt;2022/04&lt;br style=&quot;font-size: 14px;&quot;&gt;5400亿&lt;br style=&quot;font-size: 14px;&quot;&gt;/" style="rounded=1;whiteSpace=wrap;html=1;fontSize=14;fillColor=#1ba1e2;fontColor=#ffffff;strokeColor=#006EAF;" vertex="1" parent="1">
          <mxGeometry x="800" y="430" width="110" height="80" as="geometry" />
        </mxCell>
        <mxCell id="DcJqsoQAITfwaPWHc3Mr-38" value="LaMDA&lt;br style=&quot;font-size: 14px;&quot;&gt;2022/01&lt;br style=&quot;font-size: 14px;&quot;&gt;1370亿&lt;br style=&quot;font-size: 14px;&quot;&gt;1.56T" style="rounded=1;whiteSpace=wrap;html=1;fontSize=14;fillColor=#1ba1e2;fontColor=#ffffff;strokeColor=#006EAF;" vertex="1" parent="1">
          <mxGeometry x="670" y="430" width="110" height="80" as="geometry" />
        </mxCell>
      </root>
    </mxGraphModel>
  </diagram>
</mxfile>
